<?xml version="1.0" standalone="no"?>
<!DOCTYPE svg PUBLIC "-//W3C//DTD SVG 20010904//EN"
 "http://www.w3.org/TR/2001/REC-SVG-20010904/DTD/svg10.dtd">
<svg version="1.0" xmlns="http://www.w3.org/2000/svg"
 width="228.000000pt" height="228.000000pt" viewBox="0 0 228.000000 228.000000"
 preserveAspectRatio="xMidYMid meet">

<g transform="translate(0.000000,228.000000) scale(0.100000,-0.100000)"
fill="#000000" stroke="none">
<path d="M10 975 l0 -645 1125 0 1125 0 0 645 0 645 -1125 0 -1125 0 0 -645z
m980 390 l0 -155 -177 0 c-152 0 -179 2 -195 17 -30 27 -86 22 -114 -11 -28
-31 -30 -56 -9 -95 22 -43 80 -56 119 -26 16 12 57 15 198 15 l178 0 0 -340 0
-340 -440 0 -440 0 0 140 0 140 193 0 c153 -1 196 -4 211 -15 23 -17 69 -20
95 -5 10 5 24 23 31 40 15 35 0 84 -31 100 -26 15 -72 12 -95 -5 -15 -11 -58
-14 -211 -15 l-193 0 0 355 0 355 440 0 440 0 0 -155z m390 8 c-1 -114 -4
-152 -15 -167 -38 -50 3 -126 68 -126 66 0 108 89 64 138 -14 16 -17 41 -17
160 l0 142 150 0 150 0 0 -138 c0 -115 -3 -144 -19 -174 -23 -45 -17 -82 17
-108 72 -57 172 33 117 106 -11 15 -14 53 -15 167 l0 147 140 0 140 0 0 -545
0 -545 -240 0 -240 0 0 134 c0 106 3 136 15 146 23 19 19 80 -7 107 -28 30
-83 31 -115 1 -27 -25 -32 -88 -8 -108 12 -10 15 -40 15 -146 l0 -134 -245 0
-245 0 0 545 0 545 145 0 145 0 0 -147z m-786 -179 c30 -30 13 -74 -29 -74
-60 0 -59 88 2 90 6 0 19 -7 27 -16z m870 0 c30 -30 13 -74 -29 -74 -60 0 -59
88 2 90 6 0 19 -7 27 -16z m394 4 c29 -29 7 -78 -35 -78 -35 0 -52 43 -28 70
20 23 45 26 63 8z m-1270 -404 c29 -20 28 -50 -3 -70 -24 -16 -27 -16 -45 1
-24 22 -25 43 -3 67 20 22 23 22 51 2z m1061 6 c36 -19 36 -61 0 -81 -46 -24
-86 54 -41 80 21 13 20 13 41 1z"/>
</g>
</svg>
